<svg width="100" height="100" viewBox="0 0 100 100" fill="none" xmlns="http://www.w3.org/2000/svg">
<path d="M31.25 31.9583V27.9166C31.25 18.5416 38.7917 9.33325 48.1667 8.45825C50.7716 8.20233 53.4012 8.49462 55.8863 9.31633C58.3714 10.138 60.657 11.4709 62.5958 13.2293C64.5347 14.9876 66.084 17.1324 67.1439 19.5256C68.2038 21.9189 68.7509 24.5075 68.75 27.1249V32.8749M15.875 68.9999L16.8333 76.7916C17.75 84.9583 20.75 91.6666 37.5 91.6666H62.5C79.25 91.6666 82.25 84.9583 83.125 76.7916L86.25 51.7916C87.375 41.6249 84.4583 33.3333 66.6667 33.3333H33.3333C15.5417 33.3333 12.625 41.6249 13.75 51.7916" stroke="#272727" stroke-width="1.5" stroke-miterlimit="10" stroke-linecap="round" stroke-linejoin="round"/>
<path d="M64.5625 50H64.6M35.3958 50H35.4292" stroke="#272727" stroke-width="2" stroke-linecap="round" stroke-linejoin="round"/>
</svg>
