<svg width="109" height="103" viewBox="0 0 109 103" fill="none" xmlns="http://www.w3.org/2000/svg">
<path d="M94.4167 32.3333C94.4167 15.5417 90.5 11.3333 74.75 11.3333H43.25C27.5 11.3333 23.5834 15.5417 23.5834 32.3333V79.25C23.5834 90.3333 29.6667 92.9583 37.0417 85.0417L37.0834 85C40.5 81.375 45.7084 81.6667 48.6667 85.625L52.875 91.25C56.25 95.7083 61.7084 95.7083 65.0834 91.25L69.2917 85.625C72.2917 81.625 77.5 81.3333 80.9167 85C88.3334 92.9167 94.375 90.2917 94.375 79.2083V48.8333M42.3334 32.1667H75.6667H42.3334ZM46.5 48.8333H71.5H46.5Z" fill="#E5D8F6"/>
<path d="M85.4167 29.3333C85.4167 12.5417 81.5 8.33334 65.75 8.33334H34.25C18.5 8.33334 14.5834 12.5417 14.5834 29.3333V76.25C14.5834 87.3333 20.6667 89.9583 28.0417 82.0417L28.0834 82C31.5 78.375 36.7084 78.6667 39.6667 82.625L43.875 88.25C47.25 92.7083 52.7084 92.7083 56.0834 88.25L60.2917 82.625C63.2917 78.625 68.5 78.3333 71.9167 82C79.3334 89.9167 85.375 87.2917 85.375 76.2083V45.8333M33.3334 29.1667H66.6667M37.5 45.8333H62.5" stroke="#272727" stroke-width="1.5" stroke-linecap="round" stroke-linejoin="round"/>
</svg>
