<svg width="109" height="100" viewBox="0 0 109 100" fill="none" xmlns="http://www.w3.org/2000/svg">
<path d="M56.9167 8.33337C78.7917 8.33337 96.5 26.0417 96.5 47.9167C96.5 69.7917 78.7917 87.5 56.9167 87.5C35.0417 87.5 17.3334 69.7917 17.3334 47.9167C17.3334 32.5 26.125 19.1667 39 12.625M100.667 91.6667L92.3334 83.3334L100.667 91.6667Z" fill="#E5D8F6"/>
<path d="M47.9167 8.33337C69.7917 8.33337 87.5 26.0417 87.5 47.9167C87.5 69.7917 69.7917 87.5 47.9167 87.5C26.0417 87.5 8.33337 69.7917 8.33337 47.9167C8.33337 32.5 17.125 19.1667 30 12.625M91.6667 91.6667L83.3334 83.3334" stroke="#272727" stroke-width="1.5" stroke-linecap="round" stroke-linejoin="round"/>
</svg>
